<svg xmlns="http://www.w3.org/2000/svg" width="1200" height="630" viewBox="0 0 1200 630">
  <rect width="1200" height="630" fill="#F5F1E8"/>

  <circle cx="0" cy="0" r="270" fill="#D2D0CC"/>
  <circle cx="1200" cy="630" r="285" fill="#A9A9A9"/>
  <circle cx="1180" cy="34" r="145" fill="none" stroke="#C6A15B" stroke-width="3"/>
  <circle cx="1180" cy="34" r="112" fill="none" stroke="#C6A15B" stroke-width="1" opacity=".65"/>
  <circle cx="40" cy="590" r="110" fill="none" stroke="#C6A15B" stroke-width="2"/>

  <path d="M0 520 C210 420 380 610 620 505 C820 418 982 480 1200 375 L1200 630 L0 630 Z" fill="#E4E0D8"/>
  <path d="M0 570 C225 460 394 638 636 530 C842 438 995 515 1200 410" fill="none" stroke="#C6A15B" stroke-width="7"/>
  <path d="M0 591 C238 487 407 654 652 551 C852 467 1018 533 1200 447" fill="none" stroke="#2C2C2C" stroke-width="1.5" opacity=".55"/>

  <g fill="none" stroke="#C6A15B" stroke-width="2">
    <path d="M94 176 C168 130 215 71 231 16"/>
    <path d="M141 138 C125 91 137 55 174 29 C182 76 170 111 141 138 Z"/>
    <path d="M184 88 C194 46 221 22 263 15 C251 57 225 81 184 88 Z"/>
    <path d="M1037 501 C1091 475 1136 432 1168 377"/>
    <path d="M1090 463 C1078 424 1090 392 1124 369 C1132 409 1121 440 1090 463 Z"/>
    <path d="M1136 419 C1148 386 1172 367 1200 361"/>
  </g>

  <rect x="218" y="121" width="764" height="327" rx="12" fill="#F5F1E8" stroke="#C6A15B" stroke-width="1"/>
  <path d="M265 166 H455 M745 166 H935" stroke="#C6A15B" stroke-width="2"/>
  <circle cx="600" cy="166" r="5" fill="#C6A15B"/>

  <text x="600" y="179" fill="#555555" font-family="Arial, sans-serif" font-size="24" letter-spacing="8" text-anchor="middle">ПРОСТРАНСТВО КРАСОТЫ</text>
  <text x="600" y="287" fill="#2C2C2C" font-family="Georgia, serif" font-size="73" letter-spacing="3" text-anchor="middle">АННА ЦВЕТИНСКАЯ</text>
  <path d="M350 328 H850" stroke="#C6A15B" stroke-width="2"/>
  <path d="M579 328 L600 307 L621 328 L600 349 Z" fill="#C6A15B"/>
  <text x="600" y="393" fill="#555555" font-family="Arial, sans-serif" font-size="25" letter-spacing="5" text-anchor="middle">КОМСОМОЛЬСК-НА-АМУРЕ</text>
</svg>
